<svg class="main-svg" xmlns="http://www.w3.org/2000/svg" xmlns:xlink="http://www.w3.org/1999/xlink" width="900" height="500" style="" viewBox="0 0 900 500"><rect x="0" y="0" width="900" height="500" style="fill: rgb(255, 255, 255); fill-opacity: 1;"/><defs id="defs-4ebf2b"><g class="clips"><clipPath id="clip4ebf2bxyplot" class="plotclip"><rect width="344.09999999999997" height="174.6"/></clipPath><clipPath id="clip4ebf2bx2y2plot" class="plotclip"><rect width="344.09999999999997" height="174.6"/></clipPath><clipPath id="clip4ebf2bx3y3plot" class="plotclip"><rect width="344.09999999999997" height="174.6"/></clipPath><clipPath id="clip4ebf2bx4y4plot" class="plotclip"><rect width="344.09999999999997" height="174.6"/></clipPath><clipPath class="axesclip" id="clip4ebf2bx"><rect x="80" y="0" width="344.09999999999997" height="500"/></clipPath><clipPath class="axesclip" id="clip4ebf2by"><rect x="0" y="245.4" width="900" height="174.6"/></clipPath><clipPath class="axesclip" id="clip4ebf2bxy"><rect x="80" y="245.4" width="344.09999999999997" height="174.6"/></clipPath><clipPath class="axesclip" id="clip4ebf2by2"><rect x="0" y="245.4" width="900" height="174.6"/></clipPath><clipPath class="axesclip" id="clip4ebf2bxy2"><rect x="80" y="245.4" width="344.09999999999997" height="174.6"/></clipPath><clipPath class="axesclip" id="clip4ebf2by3"><rect x="0" y="60" width="900" height="174.6"/></clipPath><clipPath class="axesclip" id="clip4ebf2bxy3"><rect x="80" y="60" width="344.09999999999997" height="174.6"/></clipPath><clipPath class="axesclip" id="clip4ebf2by4"><rect x="0" y="60" width="900" height="174.6"/></clipPath><clipPath class="axesclip" id="clip4ebf2bxy4"><rect x="80" y="60" width="344.09999999999997" height="174.6"/></clipPath><clipPath class="axesclip" id="clip4ebf2bx2"><rect x="461.1" y="0" width="344.09999999999997" height="500"/></clipPath><clipPath class="axesclip" id="clip4ebf2bx2y"><rect x="461.1" y="245.4" width="344.09999999999997" height="174.6"/></clipPath><clipPath class="axesclip" id="clip4ebf2bx2y2"><rect x="461.1" y="245.4" width="344.09999999999997" height="174.6"/></clipPath><clipPath class="axesclip" id="clip4ebf2bx2y3"><rect x="461.1" y="60" width="344.09999999999997" height="174.6"/></clipPath><clipPath class="axesclip" id="clip4ebf2bx2y4"><rect x="461.1" y="60" width="344.09999999999997" height="174.6"/></clipPath><clipPath class="axesclip" id="clip4ebf2bx3"><rect x="80" y="0" width="344.09999999999997" height="500"/></clipPath><clipPath class="axesclip" id="clip4ebf2bx3y"><rect x="80" y="245.4" width="344.09999999999997" height="174.6"/></clipPath><clipPath class="axesclip" id="clip4ebf2bx3y2"><rect x="80" y="245.4" width="344.09999999999997" height="174.6"/></clipPath><clipPath class="axesclip" id="clip4ebf2bx3y3"><rect x="80" y="60" width="344.09999999999997" height="174.6"/></clipPath><clipPath class="axesclip" id="clip4ebf2bx3y4"><rect x="80" y="60" width="344.09999999999997" height="174.6"/></clipPath><clipPath class="axesclip" id="clip4ebf2bx4"><rect x="461.1" y="0" width="344.09999999999997" height="500"/></clipPath><clipPath class="axesclip" id="clip4ebf2bx4y"><rect x="461.1" y="245.4" width="344.09999999999997" height="174.6"/></clipPath><clipPath class="axesclip" id="clip4ebf2bx4y2"><rect x="461.1" y="245.4" width="344.09999999999997" height="174.6"/></clipPath><clipPath class="axesclip" id="clip4ebf2bx4y3"><rect x="461.1" y="60" width="344.09999999999997" height="174.6"/></clipPath><clipPath class="axesclip" id="clip4ebf2bx4y4"><rect x="461.1" y="60" width="344.09999999999997" height="174.6"/></clipPath></g><g class="gradients"/><g class="patterns"/></defs><g class="bglayer"/><g class="layer-below"><g class="imagelayer"/><g class="shapelayer"/></g><g class="cartesianlayer"><g class="subplot xy"><g class="layer-subplot"><g class="shapelayer"/><g class="imagelayer"/></g><g class="minor-gridlayer"><g class="x"/><g class="y"/></g><g class="gridlayer"><g class="x"><path class="xgrid crisp" transform="translate(137.35,0)" d="M0,245.4v174.6" style="stroke: rgb(235, 240, 248); stroke-opacity: 1; stroke-width: 1px;"/><path class="xgrid crisp" transform="translate(194.7,0)" d="M0,245.4v174.6" style="stroke: rgb(235, 240, 248); stroke-opacity: 1; stroke-width: 1px;"/><path class="xgrid crisp" transform="translate(252.05,0)" d="M0,245.4v174.6" style="stroke: rgb(235, 240, 248); stroke-opacity: 1; stroke-width: 1px;"/><path class="xgrid crisp" transform="translate(309.4,0)" d="M0,245.4v174.6" style="stroke: rgb(235, 240, 248); stroke-opacity: 1; stroke-width: 1px;"/><path class="xgrid crisp" transform="translate(366.75,0)" d="M0,245.4v174.6" style="stroke: rgb(235, 240, 248); stroke-opacity: 1; stroke-width: 1px;"/></g><g class="y"><path class="ygrid crisp" transform="translate(0,386.83000000000004)" d="M80,0h344.09999999999997" style="stroke: rgb(235, 240, 248); stroke-opacity: 1; stroke-width: 1px;"/><path class="ygrid crisp" transform="translate(0,353.65)" d="M80,0h344.09999999999997" style="stroke: rgb(235, 240, 248); stroke-opacity: 1; stroke-width: 1px;"/><path class="ygrid crisp" transform="translate(0,320.48)" d="M80,0h344.09999999999997" style="stroke: rgb(235, 240, 248); stroke-opacity: 1; stroke-width: 1px;"/><path class="ygrid crisp" transform="translate(0,287.3)" d="M80,0h344.09999999999997" style="stroke: rgb(235, 240, 248); stroke-opacity: 1; stroke-width: 1px;"/><path class="ygrid crisp" transform="translate(0,254.13)" d="M80,0h344.09999999999997" style="stroke: rgb(235, 240, 248); stroke-opacity: 1; stroke-width: 1px;"/></g></g><g class="zerolinelayer"><path class="yzl zl crisp" transform="translate(0,420)" d="M80,0h344.09999999999997" style="stroke: rgb(235, 240, 248); stroke-opacity: 1; stroke-width: 2px;"/></g><g class="layer-between"><g class="shapelayer"/><g class="imagelayer"/></g><path class="xlines-below"/><path class="ylines-below"/><g class="overlines-below"/><g class="xaxislayer-below"/><g class="yaxislayer-below"/><g class="overaxes-below"/><g class="overplot"><g class="xy" transform="translate(80,245.4)" clip-path="url(#clip4ebf2bxyplot)"><g class="scatterlayer mlayer"><g class="trace scatter trace687144" style="stroke-miterlimit: 2;"><g class="fills"><g><path class="js-fill" d="M344.1,174.6L0,174.6L0,174.6L344.1,174.6" style="fill: rgb(99, 110, 250); fill-opacity: 0.5; stroke-width: 0;"/></g><g><path class="js-fill" d="M0,174.6L57.35,174.6L114.7,49.91L172.05,42.23L229.4,25.97L286.75,50.64L344.1,31.69L344.1,174.6L0,174.6Z" style="fill: rgb(239, 85, 59); fill-opacity: 0.5; stroke-width: 0;"/></g></g><g class="errorbars"/><g class="lines"><path class="js-line" d="M0,174.6L344.1,174.6" style="vector-effect: none; fill: none; stroke: rgb(99, 110, 250); stroke-opacity: 1; stroke-width: 2px; opacity: 1;"/></g><g class="points"/><g class="text"/></g><g class="trace scatter trace0a5b81" style="stroke-miterlimit: 2;"><g class="fills"><g><path class="js-fill" d="M0,8.73L344.1,8.73L344.1,31.69L286.75,50.64L229.4,25.97L172.05,42.23L114.7,49.91L57.35,174.6L0,174.6Z" style="fill: rgb(0, 204, 150); fill-opacity: 0.5; stroke-width: 0;"/></g></g><g class="errorbars"/><g class="lines"><path class="js-line" d="M0,174.6L57.35,174.6L114.7,49.91L172.05,42.23L229.4,25.97L286.75,50.64L344.1,31.69" style="vector-effect: none; fill: none; stroke: rgb(239, 85, 59); stroke-opacity: 1; stroke-width: 2px; opacity: 1;"/></g><g class="points"/><g class="text"/></g><g class="trace scatter tracefa908a" style="stroke-miterlimit: 2;"><g class="fills"/><g class="errorbars"/><g class="lines"><path class="js-line" d="M0,8.73L344.1,8.73" style="vector-effect: none; fill: none; stroke: rgb(0, 204, 150); stroke-opacity: 1; stroke-width: 2px; opacity: 1;"/></g><g class="points"/><g class="text"/></g></g></g></g><path class="xlines-above crisp" d="M0,0" style="fill: none;"/><path class="ylines-above crisp" d="M0,0" style="fill: none;"/><g class="overlines-above"/><g class="xaxislayer-above"><g class="xtick"><text text-anchor="start" x="0" y="435" transform="translate(80,0) rotate(45,0,428)" style="font-family: 'Open Sans', verdana, arial, sans-serif; font-size: 14px; fill: rgb(42, 63, 95); fill-opacity: 1; white-space: pre; opacity: 1;">2021</text></g><g class="xtick"><text text-anchor="start" x="0" y="435" transform="translate(137.35,0) rotate(45,0,428)" style="font-family: 'Open Sans', verdana, arial, sans-serif; font-size: 14px; fill: rgb(42, 63, 95); fill-opacity: 1; white-space: pre; opacity: 1;">2025</text></g><g class="xtick"><text text-anchor="start" x="0" y="435" transform="translate(194.7,0) rotate(45,0,428)" style="font-family: 'Open Sans', verdana, arial, sans-serif; font-size: 14px; fill: rgb(42, 63, 95); fill-opacity: 1; white-space: pre; opacity: 1;">2030</text></g><g class="xtick"><text text-anchor="start" x="0" y="435" transform="translate(252.05,0) rotate(45,0,428)" style="font-family: 'Open Sans', verdana, arial, sans-serif; font-size: 14px; fill: rgb(42, 63, 95); fill-opacity: 1; white-space: pre; opacity: 1;">2035</text></g><g class="xtick"><text text-anchor="start" x="0" y="435" transform="translate(309.4,0) rotate(45,0,428)" style="font-family: 'Open Sans', verdana, arial, sans-serif; font-size: 14px; fill: rgb(42, 63, 95); fill-opacity: 1; white-space: pre; opacity: 1;">2040</text></g><g class="xtick"><text text-anchor="start" x="0" y="435" transform="translate(366.75,0) rotate(45,0,428)" style="font-family: 'Open Sans', verdana, arial, sans-serif; font-size: 14px; fill: rgb(42, 63, 95); fill-opacity: 1; white-space: pre; opacity: 1;">2045</text></g><g class="xtick"><text text-anchor="start" x="0" y="435" transform="translate(424.1,0) rotate(45,0,428)" style="font-family: 'Open Sans', verdana, arial, sans-serif; font-size: 14px; fill: rgb(42, 63, 95); fill-opacity: 1; white-space: pre; opacity: 1;">2050</text></g></g><g class="yaxislayer-above"><g class="ytick"><text text-anchor="end" x="79" y="4.8999999999999995" transform="translate(0,420)" style="font-family: 'Open Sans', verdana, arial, sans-serif; font-size: 14px; fill: rgb(42, 63, 95); fill-opacity: 1; white-space: pre; opacity: 1;">0</text></g><g class="ytick"><text text-anchor="end" x="79" y="4.8999999999999995" style="font-family: 'Open Sans', verdana, arial, sans-serif; font-size: 14px; fill: rgb(42, 63, 95); fill-opacity: 1; white-space: pre; opacity: 1;" transform="translate(0,386.83000000000004)">20</text></g><g class="ytick"><text text-anchor="end" x="79" y="4.8999999999999995" style="font-family: 'Open Sans', verdana, arial, sans-serif; font-size: 14px; fill: rgb(42, 63, 95); fill-opacity: 1; white-space: pre; opacity: 1;" transform="translate(0,353.65)">40</text></g><g class="ytick"><text text-anchor="end" x="79" y="4.8999999999999995" style="font-family: 'Open Sans', verdana, arial, sans-serif; font-size: 14px; fill: rgb(42, 63, 95); fill-opacity: 1; white-space: pre; opacity: 1;" transform="translate(0,320.48)">60</text></g><g class="ytick"><text text-anchor="end" x="79" y="4.8999999999999995" style="font-family: 'Open Sans', verdana, arial, sans-serif; font-size: 14px; fill: rgb(42, 63, 95); fill-opacity: 1; white-space: pre; opacity: 1;" transform="translate(0,287.3)">80</text></g><g class="ytick"><text text-anchor="end" x="79" y="4.8999999999999995" style="font-family: 'Open Sans', verdana, arial, sans-serif; font-size: 14px; fill: rgb(42, 63, 95); fill-opacity: 1; white-space: pre; opacity: 1;" transform="translate(0,254.13)">100</text></g></g><g class="overaxes-above"/></g><g class="subplot x2y2"><g class="layer-subplot"><g class="shapelayer"/><g class="imagelayer"/></g><g class="minor-gridlayer"><g class="x2"/><g class="y2"/></g><g class="gridlayer"><g class="x2"><path class="x2grid crisp" transform="translate(518.45,0)" d="M0,245.4v174.6" style="stroke: rgb(235, 240, 248); stroke-opacity: 1; stroke-width: 1px;"/><path class="x2grid crisp" transform="translate(575.8000000000001,0)" d="M0,245.4v174.6" style="stroke: rgb(235, 240, 248); stroke-opacity: 1; stroke-width: 1px;"/><path class="x2grid crisp" transform="translate(633.1500000000001,0)" d="M0,245.4v174.6" style="stroke: rgb(235, 240, 248); stroke-opacity: 1; stroke-width: 1px;"/><path class="x2grid crisp" transform="translate(690.5,0)" d="M0,245.4v174.6" style="stroke: rgb(235, 240, 248); stroke-opacity: 1; stroke-width: 1px;"/><path class="x2grid crisp" transform="translate(747.85,0)" d="M0,245.4v174.6" style="stroke: rgb(235, 240, 248); stroke-opacity: 1; stroke-width: 1px;"/></g><g class="y2"><path class="y2grid crisp" transform="translate(0,386.83000000000004)" d="M461.1,0h344.09999999999997" style="stroke: rgb(235, 240, 248); stroke-opacity: 1; stroke-width: 1px;"/><path class="y2grid crisp" transform="translate(0,353.65)" d="M461.1,0h344.09999999999997" style="stroke: rgb(235, 240, 248); stroke-opacity: 1; stroke-width: 1px;"/><path class="y2grid crisp" transform="translate(0,320.48)" d="M461.1,0h344.09999999999997" style="stroke: rgb(235, 240, 248); stroke-opacity: 1; stroke-width: 1px;"/><path class="y2grid crisp" transform="translate(0,287.3)" d="M461.1,0h344.09999999999997" style="stroke: rgb(235, 240, 248); stroke-opacity: 1; stroke-width: 1px;"/><path class="y2grid crisp" transform="translate(0,254.13)" d="M461.1,0h344.09999999999997" style="stroke: rgb(235, 240, 248); stroke-opacity: 1; stroke-width: 1px;"/></g></g><g class="zerolinelayer"><path class="y2zl zl crisp" transform="translate(0,420)" d="M461.1,0h344.09999999999997" style="stroke: rgb(235, 240, 248); stroke-opacity: 1; stroke-width: 2px;"/></g><g class="layer-between"><g class="shapelayer"/><g class="imagelayer"/></g><path class="xlines-below"/><path class="ylines-below"/><g class="overlines-below"/><g class="xaxislayer-below"/><g class="yaxislayer-below"/><g class="overaxes-below"/><g class="overplot"><g class="x2y2" transform="translate(461.1,245.4)" clip-path="url(#clip4ebf2bx2y2plot)"><g class="scatterlayer mlayer"><g class="trace scatter trace6854cd" style="stroke-miterlimit: 2;"><g class="fills"><g><path class="js-fill" d="M344.1,174.6L0,174.6L0,174.6L57.35,174.6L114.7,172.65L229.4,168.54L286.75,167.33L344.1,167.02" style="fill: rgb(99, 110, 250); fill-opacity: 0.5; stroke-width: 0;"/></g><g><path class="js-fill" d="M0,174.6L57.35,174.6L114.7,171.46L229.4,163.14L286.75,160.36L344.1,159.4L344.1,167.02L286.75,167.33L229.4,168.54L114.7,172.65L57.35,174.6L0,174.6Z" style="fill: rgb(239, 85, 59); fill-opacity: 0.5; stroke-width: 0;"/></g></g><g class="errorbars"/><g class="lines"><path class="js-line" d="M0,174.6L57.35,174.6L114.7,172.65L229.4,168.54L286.75,167.33L344.1,167.02" style="vector-effect: none; fill: none; stroke: rgb(99, 110, 250); stroke-opacity: 1; stroke-width: 2px; opacity: 1;"/></g><g class="points"/><g class="text"/></g><g class="trace scatter trace332905" style="stroke-miterlimit: 2;"><g class="fills"><g><path class="js-fill" d="M0,8.73L344.1,8.73L344.1,159.4L286.75,160.36L229.4,163.14L114.7,171.46L57.35,174.6L0,174.6Z" style="fill: rgb(0, 204, 150); fill-opacity: 0.5; stroke-width: 0;"/></g></g><g class="errorbars"/><g class="lines"><path class="js-line" d="M0,174.6L57.35,174.6L114.7,171.46L229.4,163.14L286.75,160.36L344.1,159.4" style="vector-effect: none; fill: none; stroke: rgb(239, 85, 59); stroke-opacity: 1; stroke-width: 2px; opacity: 1;"/></g><g class="points"/><g class="text"/></g><g class="trace scatter trace4bbfdc" style="stroke-miterlimit: 2;"><g class="fills"/><g class="errorbars"/><g class="lines"><path class="js-line" d="M0,8.73L344.1,8.73" style="vector-effect: none; fill: none; stroke: rgb(0, 204, 150); stroke-opacity: 1; stroke-width: 2px; opacity: 1;"/></g><g class="points"/><g class="text"/></g></g></g></g><path class="xlines-above crisp" d="M0,0" style="fill: none;"/><path class="ylines-above crisp" d="M0,0" style="fill: none;"/><g class="overlines-above"/><g class="xaxislayer-above"><g class="x2tick"><text text-anchor="start" x="0" y="435" transform="translate(461.1,0) rotate(45,0,428)" style="font-family: 'Open Sans', verdana, arial, sans-serif; font-size: 14px; fill: rgb(42, 63, 95); fill-opacity: 1; white-space: pre; opacity: 1;">2021</text></g><g class="x2tick"><text text-anchor="start" x="0" y="435" transform="translate(518.45,0) rotate(45,0,428)" style="font-family: 'Open Sans', verdana, arial, sans-serif; font-size: 14px; fill: rgb(42, 63, 95); fill-opacity: 1; white-space: pre; opacity: 1;">2025</text></g><g class="x2tick"><text text-anchor="start" x="0" y="435" transform="translate(575.8000000000001,0) rotate(45,0,428)" style="font-family: 'Open Sans', verdana, arial, sans-serif; font-size: 14px; fill: rgb(42, 63, 95); fill-opacity: 1; white-space: pre; opacity: 1;">2030</text></g><g class="x2tick"><text text-anchor="start" x="0" y="435" transform="translate(633.1500000000001,0) rotate(45,0,428)" style="font-family: 'Open Sans', verdana, arial, sans-serif; font-size: 14px; fill: rgb(42, 63, 95); fill-opacity: 1; white-space: pre; opacity: 1;">2035</text></g><g class="x2tick"><text text-anchor="start" x="0" y="435" transform="translate(690.5,0) rotate(45,0,428)" style="font-family: 'Open Sans', verdana, arial, sans-serif; font-size: 14px; fill: rgb(42, 63, 95); fill-opacity: 1; white-space: pre; opacity: 1;">2040</text></g><g class="x2tick"><text text-anchor="start" x="0" y="435" transform="translate(747.85,0) rotate(45,0,428)" style="font-family: 'Open Sans', verdana, arial, sans-serif; font-size: 14px; fill: rgb(42, 63, 95); fill-opacity: 1; white-space: pre; opacity: 1;">2045</text></g><g class="x2tick"><text text-anchor="start" x="0" y="435" transform="translate(805.2,0) rotate(45,0,428)" style="font-family: 'Open Sans', verdana, arial, sans-serif; font-size: 14px; fill: rgb(42, 63, 95); fill-opacity: 1; white-space: pre; opacity: 1;">2050</text></g></g><g class="yaxislayer-above"/><g class="overaxes-above"/></g><g class="subplot x3y3"><g class="layer-subplot"><g class="shapelayer"/><g class="imagelayer"/></g><g class="minor-gridlayer"><g class="x3"/><g class="y3"/></g><g class="gridlayer"><g class="x3"><path class="x3grid crisp" transform="translate(137.35,0)" d="M0,60v174.6" style="stroke: rgb(235, 240, 248); stroke-opacity: 1; stroke-width: 1px;"/><path class="x3grid crisp" transform="translate(194.7,0)" d="M0,60v174.6" style="stroke: rgb(235, 240, 248); stroke-opacity: 1; stroke-width: 1px;"/><path class="x3grid crisp" transform="translate(252.05,0)" d="M0,60v174.6" style="stroke: rgb(235, 240, 248); stroke-opacity: 1; stroke-width: 1px;"/><path class="x3grid crisp" transform="translate(309.4,0)" d="M0,60v174.6" style="stroke: rgb(235, 240, 248); stroke-opacity: 1; stroke-width: 1px;"/><path class="x3grid crisp" transform="translate(366.75,0)" d="M0,60v174.6" style="stroke: rgb(235, 240, 248); stroke-opacity: 1; stroke-width: 1px;"/></g><g class="y3"><path class="y3grid crisp" transform="translate(0,201.43)" d="M80,0h344.09999999999997" style="stroke: rgb(235, 240, 248); stroke-opacity: 1; stroke-width: 1px;"/><path class="y3grid crisp" transform="translate(0,168.25)" d="M80,0h344.09999999999997" style="stroke: rgb(235, 240, 248); stroke-opacity: 1; stroke-width: 1px;"/><path class="y3grid crisp" transform="translate(0,135.07999999999998)" d="M80,0h344.09999999999997" style="stroke: rgb(235, 240, 248); stroke-opacity: 1; stroke-width: 1px;"/><path class="y3grid crisp" transform="translate(0,101.9)" d="M80,0h344.09999999999997" style="stroke: rgb(235, 240, 248); stroke-opacity: 1; stroke-width: 1px;"/><path class="y3grid crisp" transform="translate(0,68.73)" d="M80,0h344.09999999999997" style="stroke: rgb(235, 240, 248); stroke-opacity: 1; stroke-width: 1px;"/></g></g><g class="zerolinelayer"><path class="y3zl zl crisp" transform="translate(0,234.6)" d="M80,0h344.09999999999997" style="stroke: rgb(235, 240, 248); stroke-opacity: 1; stroke-width: 2px;"/></g><g class="layer-between"><g class="shapelayer"/><g class="imagelayer"/></g><path class="xlines-below"/><path class="ylines-below"/><g class="overlines-below"/><g class="xaxislayer-below"/><g class="yaxislayer-below"/><g class="overaxes-below"/><g class="overplot"><g class="x3y3" transform="translate(80,60)" clip-path="url(#clip4ebf2bx3y3plot)"><g class="scatterlayer mlayer"><g class="trace scatter trace19c64a" style="stroke-miterlimit: 2;"><g class="fills"><g><path class="js-fill" d="M344.1,174.6L0,174.6L0,85.92L57.35,9.58L114.7,9.9L229.4,8.81L286.75,8.77L344.1,8.74" style="fill: rgb(99, 110, 250); fill-opacity: 0.5; stroke-width: 0;"/></g><g><path class="js-fill" d="M0,85.92L57.35,9.58L114.7,9.9L229.4,8.81L286.75,8.77L344.1,8.74L344.1,8.74L286.75,8.77L229.4,8.81L114.7,9.9L57.35,9.58L0,85.92Z" style="fill: rgb(239, 85, 59); fill-opacity: 0.5; stroke-width: 0;"/></g></g><g class="errorbars"/><g class="lines"><path class="js-line" d="M0,85.92L57.35,9.58L114.7,9.9L229.4,8.81L286.75,8.77L344.1,8.74" style="vector-effect: none; fill: none; stroke: rgb(99, 110, 250); stroke-opacity: 1; stroke-width: 2px; opacity: 1;"/></g><g class="points"/><g class="text"/></g><g class="trace scatter trace471057" style="stroke-miterlimit: 2;"><g class="fills"><g><path class="js-fill" d="M0,8.73L344.1,8.73L344.1,8.74L286.75,8.77L229.4,8.81L114.7,9.9L57.35,9.58L0,85.92Z" style="fill: rgb(0, 204, 150); fill-opacity: 0.5; stroke-width: 0;"/></g></g><g class="errorbars"/><g class="lines"><path class="js-line" d="M0,85.92L57.35,9.58L114.7,9.9L229.4,8.81L286.75,8.77L344.1,8.74" style="vector-effect: none; fill: none; stroke: rgb(239, 85, 59); stroke-opacity: 1; stroke-width: 2px; opacity: 1;"/></g><g class="points"/><g class="text"/></g><g class="trace scatter trace149603" style="stroke-miterlimit: 2;"><g class="fills"/><g class="errorbars"/><g class="lines"><path class="js-line" d="M0,8.73L344.1,8.73" style="vector-effect: none; fill: none; stroke: rgb(0, 204, 150); stroke-opacity: 1; stroke-width: 2px; opacity: 1;"/></g><g class="points"/><g class="text"/></g></g></g></g><path class="xlines-above crisp" d="M0,0" style="fill: none;"/><path class="ylines-above crisp" d="M0,0" style="fill: none;"/><g class="overlines-above"/><g class="xaxislayer-above"/><g class="yaxislayer-above"><g class="y3tick"><text text-anchor="end" x="79" y="4.8999999999999995" transform="translate(0,234.6)" style="font-family: 'Open Sans', verdana, arial, sans-serif; font-size: 14px; fill: rgb(42, 63, 95); fill-opacity: 1; white-space: pre; opacity: 1;">0</text></g><g class="y3tick"><text text-anchor="end" x="79" y="4.8999999999999995" style="font-family: 'Open Sans', verdana, arial, sans-serif; font-size: 14px; fill: rgb(42, 63, 95); fill-opacity: 1; white-space: pre; opacity: 1;" transform="translate(0,201.43)">20</text></g><g class="y3tick"><text text-anchor="end" x="79" y="4.8999999999999995" style="font-family: 'Open Sans', verdana, arial, sans-serif; font-size: 14px; fill: rgb(42, 63, 95); fill-opacity: 1; white-space: pre; opacity: 1;" transform="translate(0,168.25)">40</text></g><g class="y3tick"><text text-anchor="end" x="79" y="4.8999999999999995" style="font-family: 'Open Sans', verdana, arial, sans-serif; font-size: 14px; fill: rgb(42, 63, 95); fill-opacity: 1; white-space: pre; opacity: 1;" transform="translate(0,135.07999999999998)">60</text></g><g class="y3tick"><text text-anchor="end" x="79" y="4.8999999999999995" style="font-family: 'Open Sans', verdana, arial, sans-serif; font-size: 14px; fill: rgb(42, 63, 95); fill-opacity: 1; white-space: pre; opacity: 1;" transform="translate(0,101.9)">80</text></g><g class="y3tick"><text text-anchor="end" x="79" y="4.8999999999999995" style="font-family: 'Open Sans', verdana, arial, sans-serif; font-size: 14px; fill: rgb(42, 63, 95); fill-opacity: 1; white-space: pre; opacity: 1;" transform="translate(0,68.73)">100</text></g></g><g class="overaxes-above"/></g><g class="subplot x4y4"><g class="layer-subplot"><g class="shapelayer"/><g class="imagelayer"/></g><g class="minor-gridlayer"><g class="x4"/><g class="y4"/></g><g class="gridlayer"><g class="x4"><path class="x4grid crisp" transform="translate(518.45,0)" d="M0,60v174.6" style="stroke: rgb(235, 240, 248); stroke-opacity: 1; stroke-width: 1px;"/><path class="x4grid crisp" transform="translate(575.8000000000001,0)" d="M0,60v174.6" style="stroke: rgb(235, 240, 248); stroke-opacity: 1; stroke-width: 1px;"/><path class="x4grid crisp" transform="translate(633.1500000000001,0)" d="M0,60v174.6" style="stroke: rgb(235, 240, 248); stroke-opacity: 1; stroke-width: 1px;"/><path class="x4grid crisp" transform="translate(690.5,0)" d="M0,60v174.6" style="stroke: rgb(235, 240, 248); stroke-opacity: 1; stroke-width: 1px;"/><path class="x4grid crisp" transform="translate(747.85,0)" d="M0,60v174.6" style="stroke: rgb(235, 240, 248); stroke-opacity: 1; stroke-width: 1px;"/></g><g class="y4"><path class="y4grid crisp" transform="translate(0,201.43)" d="M461.1,0h344.09999999999997" style="stroke: rgb(235, 240, 248); stroke-opacity: 1; stroke-width: 1px;"/><path class="y4grid crisp" transform="translate(0,168.25)" d="M461.1,0h344.09999999999997" style="stroke: rgb(235, 240, 248); stroke-opacity: 1; stroke-width: 1px;"/><path class="y4grid crisp" transform="translate(0,135.07999999999998)" d="M461.1,0h344.09999999999997" style="stroke: rgb(235, 240, 248); stroke-opacity: 1; stroke-width: 1px;"/><path class="y4grid crisp" transform="translate(0,101.9)" d="M461.1,0h344.09999999999997" style="stroke: rgb(235, 240, 248); stroke-opacity: 1; stroke-width: 1px;"/><path class="y4grid crisp" transform="translate(0,68.73)" d="M461.1,0h344.09999999999997" style="stroke: rgb(235, 240, 248); stroke-opacity: 1; stroke-width: 1px;"/></g></g><g class="zerolinelayer"><path class="y4zl zl crisp" transform="translate(0,234.6)" d="M461.1,0h344.09999999999997" style="stroke: rgb(235, 240, 248); stroke-opacity: 1; stroke-width: 2px;"/></g><g class="layer-between"><g class="shapelayer"/><g class="imagelayer"/></g><path class="xlines-below"/><path class="ylines-below"/><g class="overlines-below"/><g class="xaxislayer-below"/><g class="yaxislayer-below"/><g class="overaxes-below"/><g class="overplot"><g class="x4y4" transform="translate(461.1,60)" clip-path="url(#clip4ebf2bx4y4plot)"><g class="scatterlayer mlayer"><g class="trace scatter tracef53812" style="stroke-miterlimit: 2;"><g class="fills"><g><path class="js-fill" d="M344.1,174.6L0,174.6L0,171.94L57.35,169.14L114.7,159.47L172.05,134.44L229.4,111.95L286.75,93.56L344.1,84.65" style="fill: rgb(99, 110, 250); fill-opacity: 0.5; stroke-width: 0;"/></g><g><path class="js-fill" d="M0,171.94L57.35,169.14L114.7,159.47L172.05,134.44L229.4,111.95L286.75,93.56L344.1,84.65L344.1,84.65L286.75,93.56L229.4,111.95L172.05,134.44L114.7,159.47L57.35,169.14L0,171.94Z" style="fill: rgb(239, 85, 59); fill-opacity: 0.5; stroke-width: 0;"/></g></g><g class="errorbars"/><g class="lines"><path class="js-line" d="M0,171.94L57.35,169.14L114.7,159.47L172.05,134.44L229.4,111.95L286.75,93.56L344.1,84.65" style="vector-effect: none; fill: none; stroke: rgb(99, 110, 250); stroke-opacity: 1; stroke-width: 2px; opacity: 1;"/></g><g class="points"/><g class="text"/></g><g class="trace scatter tracec0b690" style="stroke-miterlimit: 2;"><g class="fills"><g><path class="js-fill" d="M0,8.73L344.1,8.73L344.1,84.65L286.75,93.56L229.4,111.95L172.05,134.44L114.7,159.47L57.35,169.14L0,171.94Z" style="fill: rgb(0, 204, 150); fill-opacity: 0.5; stroke-width: 0;"/></g></g><g class="errorbars"/><g class="lines"><path class="js-line" d="M0,171.94L57.35,169.14L114.7,159.47L172.05,134.44L229.4,111.95L286.75,93.56L344.1,84.65" style="vector-effect: none; fill: none; stroke: rgb(239, 85, 59); stroke-opacity: 1; stroke-width: 2px; opacity: 1;"/></g><g class="points"/><g class="text"/></g><g class="trace scatter trace062017" style="stroke-miterlimit: 2;"><g class="fills"/><g class="errorbars"/><g class="lines"><path class="js-line" d="M0,8.73L344.1,8.73" style="vector-effect: none; fill: none; stroke: rgb(0, 204, 150); stroke-opacity: 1; stroke-width: 2px; opacity: 1;"/></g><g class="points"/><g class="text"/></g></g></g></g><path class="xlines-above crisp" d="M0,0" style="fill: none;"/><path class="ylines-above crisp" d="M0,0" style="fill: none;"/><g class="overlines-above"/><g class="xaxislayer-above"/><g class="yaxislayer-above"/><g class="overaxes-above"/></g></g><g class="polarlayer"/><g class="smithlayer"/><g class="ternarylayer"/><g class="geolayer"/><g class="funnelarealayer"/><g class="pielayer"/><g class="iciclelayer"/><g class="treemaplayer"/><g class="sunburstlayer"/><g class="glimages"/><defs id="topdefs-4ebf2b"><g class="clips"/><clipPath id="legend4ebf2b"><rect width="235" height="32" x="0" y="0"/></clipPath></defs><g class="layer-above"><g class="imagelayer"/><g class="shapelayer"/></g><g class="infolayer"><g class="legend" pointer-events="all" transform="translate(332.5,63.6)"><rect class="bg" shape-rendering="crispEdges" style="stroke: rgb(68, 68, 68); stroke-opacity: 1; fill: rgb(255, 255, 255); fill-opacity: 1; stroke-width: 0px;" width="235" height="32" x="0" y="0"/><g class="scrollbox" transform="" clip-path="url(#legend4ebf2b)"><g class="groups" transform=""><g class="traces" transform="translate(0,15.6)" style="opacity: 1;"><text class="legendtext" text-anchor="start" x="40" y="5.46" style="font-family: 'Open Sans', verdana, arial, sans-serif; font-size: 14px; fill: rgb(42, 63, 95); fill-opacity: 1; white-space: pre;">BEV</text><g class="layers"><g class="legendfill"><path class="js-fill" d="M5,-2h30v6h-30z" style="stroke-width: 0; fill: rgb(99, 110, 250); fill-opacity: 0.5;"/></g><g class="legendlines"><path class="js-line" d="M5,-2h30" style="fill: none; stroke: rgb(99, 110, 250); stroke-opacity: 1; stroke-width: 2px;"/></g><g class="legendsymbols"><g class="legendpoints"/></g></g><rect class="legendtoggle" x="0" y="-10.6" width="70.953125" height="21.2" style="fill: rgb(0, 0, 0); fill-opacity: 0;"/></g></g><g class="groups" transform="translate(73.453125,0)"><g class="traces" transform="translate(0,15.6)" style="opacity: 1;"><text class="legendtext" text-anchor="start" x="40" y="5.46" style="font-family: 'Open Sans', verdana, arial, sans-serif; font-size: 14px; fill: rgb(42, 63, 95); fill-opacity: 1; white-space: pre;">FCEV</text><g class="layers"><g class="legendfill"><path class="js-fill" d="M5,-2h30v6h-30z" style="stroke-width: 0; fill: rgb(239, 85, 59); fill-opacity: 0.5;"/></g><g class="legendlines"><path class="js-line" d="M5,-2h30" style="fill: none; stroke: rgb(239, 85, 59); stroke-opacity: 1; stroke-width: 2px;"/></g><g class="legendsymbols"><g class="legendpoints"/></g></g><rect class="legendtoggle" x="0" y="-10.6" width="79.1875" height="21.2" style="fill: rgb(0, 0, 0); fill-opacity: 0;"/></g></g><g class="groups" transform="translate(155.140625,0)"><g class="traces" transform="translate(0,15.6)" style="opacity: 1;"><text class="legendtext" text-anchor="start" x="40" y="5.46" style="font-family: 'Open Sans', verdana, arial, sans-serif; font-size: 14px; fill: rgb(42, 63, 95); fill-opacity: 1; white-space: pre;">ICEV</text><g class="layers"><g class="legendfill"><path class="js-fill" d="M5,-2h30v6h-30z" style="stroke-width: 0; fill: rgb(0, 204, 150); fill-opacity: 0.5;"/></g><g class="legendlines"><path class="js-line" d="M5,-2h30" style="fill: none; stroke: rgb(0, 204, 150); stroke-opacity: 1; stroke-width: 2px;"/></g><g class="legendsymbols"><g class="legendpoints"/></g></g><rect class="legendtoggle" x="0" y="-10.6" width="77.03125" height="21.2" style="fill: rgb(0, 0, 0); fill-opacity: 0;"/></g></g></g><rect class="scrollbar" rx="20" ry="3" width="0" height="0" style="fill: rgb(128, 139, 164); fill-opacity: 1;" x="0" y="0"/></g><g class="g-gtitle"><text class="gtitle" x="450" y="15" text-anchor="middle" dy="0.7em" style="opacity: 1; font-family: 'Open Sans', verdana, arial, sans-serif; font-size: 20px; fill: rgb(42, 63, 95); fill-opacity: 1; white-space: pre;">RT vehicle market share by weight class, drivetrain and energy model in ON</text></g><g class="g-xtitle"/><g class="g-x2title"/><g class="g-x3title"/><g class="g-x4title"/><g class="g-ytitle"/><g class="g-y2title"/><g class="g-y3title"/><g class="g-y4title"/><g class="annotation" data-index="0" style="opacity: 1;"><g class="annotation-text-g" transform="rotate(0,252.04999999999998,49.5)"><g class="cursor-pointer" transform="translate(180,39)"><rect class="bg" x="0.5" y="0.5" width="143" height="20" style="stroke-width: 1px; stroke: rgb(0, 0, 0); stroke-opacity: 0; fill: rgb(0, 0, 0); fill-opacity: 0;"/><text class="annotation-text" text-anchor="middle" x="71.953125" y="16" style="font-family: 'Open Sans', verdana, arial, sans-serif; font-size: 14px; fill: rgb(42, 63, 95); fill-opacity: 1; white-space: pre;">Model=CANOE (ref)</text></g></g></g><g class="annotation" data-index="1" style="opacity: 1;"><g class="annotation-text-g" transform="rotate(0,633.1500000000001,49.49999999999999)"><g class="cursor-pointer" transform="translate(545,39)"><rect class="bg" x="0.5" y="0.5" width="175" height="20" style="stroke-width: 1px; stroke: rgb(0, 0, 0); stroke-opacity: 0; fill: rgb(0, 0, 0); fill-opacity: 0;"/><text class="annotation-text" text-anchor="middle" x="87.90625" y="16" style="font-family: 'Open Sans', verdana, arial, sans-serif; font-size: 14px; fill: rgb(42, 63, 95); fill-opacity: 1; white-space: pre;">Model=gTech-IESD (ref)</text></g></g></g><g class="annotation" data-index="2" style="opacity: 1;"><g class="annotation-text-g" transform="rotate(90,815.6999999999999,332.70000000000005)"><g class="cursor-pointer" transform="translate(774,322)"><rect class="bg" x="0.5" y="0.5" width="82" height="20" style="stroke-width: 1px; stroke: rgb(0, 0, 0); stroke-opacity: 0; fill: rgb(0, 0, 0); fill-opacity: 0;"/><text class="annotation-text" text-anchor="middle" x="41.484375" y="16" style="font-family: 'Open Sans', verdana, arial, sans-serif; font-size: 14px; fill: rgb(42, 63, 95); fill-opacity: 1; white-space: pre;">Class=HDV</text></g></g></g><g class="annotation" data-index="3" style="opacity: 1;"><g class="annotation-text-g" transform="rotate(90,815.6999999999999,147.29999999999998)"><g class="cursor-pointer" transform="translate(775,137)"><rect class="bg" x="0.5" y="0.5" width="80" height="20" style="stroke-width: 1px; stroke: rgb(0, 0, 0); stroke-opacity: 0; fill: rgb(0, 0, 0); fill-opacity: 0;"/><text class="annotation-text" text-anchor="middle" x="40.125" y="16" style="font-family: 'Open Sans', verdana, arial, sans-serif; font-size: 14px; fill: rgb(42, 63, 95); fill-opacity: 1; white-space: pre;">Class=LDV</text></g></g></g><g class="annotation" data-index="4" style="opacity: 1;"><g class="annotation-text-g" transform="rotate(-90,31.8,240)"><g class="cursor-pointer" transform="translate(-38,229)"><rect class="bg" x="0.5" y="0.5" width="139" height="21" style="stroke-width: 1px; stroke: rgb(0, 0, 0); stroke-opacity: 0; fill: rgb(0, 0, 0); fill-opacity: 0;"/><text class="annotation-text" text-anchor="middle" x="70.03125" y="17" style="font-family: 'Open Sans', verdana, arial, sans-serif; font-size: 15px; fill: rgb(42, 63, 95); fill-opacity: 1; white-space: pre;">Market Share (%)</text></g></g></g></g></svg>